<svg width="42" height="42" viewBox="0 0 42 42" fill="none" xmlns="http://www.w3.org/2000/svg">
<path d="M27.9999 15.2664L20.9587 24.7556L14.8526 16.4491L6.73865 24.8381L17.8781 33.9972L36.0314 15.2939H27.9724L27.9999 15.2664Z" fill="#FEFEFE"/>
<path d="M20.9862 9.79223C22.1689 9.79223 23.1316 8.82956 23.1316 7.64685C23.1316 6.46414 22.1689 5.50146 20.9862 5.50146C19.8035 5.50146 18.8408 6.46414 18.8408 7.64685C18.8408 8.82956 19.8035 9.79223 20.9862 9.79223Z" fill="#FEFEFE"/>
<path d="M30.668 24.343L42 33.6396V15.2664H39.497L30.6955 24.343H30.668Z" fill="#FEFEFE"/>
<path d="M12.5422 15.2664H0V28.2487L12.5422 15.2664Z" fill="#FEFEFE"/>
<path d="M28.9351 26.1035L13.5049 42.0014H41.9725V36.8304L28.9351 26.1035Z" fill="#FEFEFE"/>
<path d="M16.1729 35.7297L5.0334 26.5706L0 31.769V42.0008H10.0943L16.1729 35.7297Z" fill="#FEFEFE"/>
<path d="M20.9862 20.6293C21.5639 19.8867 24.9194 15.2384 26.0747 13.6981C27.4224 11.8553 28.6601 10.0124 28.6601 7.64701C28.6601 3.41126 25.222 -0.0268555 20.9862 -0.0268555C16.7505 -0.0268555 13.3124 3.41126 13.3124 7.64701C13.3124 10.0124 14.5501 11.8553 15.8978 13.6981C17.0255 15.2384 20.9862 20.6293 20.9862 20.6293ZM20.9862 3.05369C23.5167 3.05369 25.5796 5.11656 25.5796 7.64701C25.5796 10.1775 23.5167 12.2403 20.9862 12.2403C18.4558 12.2403 16.3929 10.1775 16.3929 7.64701C16.3929 5.11656 18.4558 3.05369 20.9862 3.05369Z" fill="#FEFEFE"/>
</svg>
